<?xml version="1.0" encoding="utf-8"?>
<!-- Generator: Adobe Illustrator 26.1.0, SVG Export Plug-In . SVG Version: 6.00 Build 0)  -->
<svg version="1.1" xmlns="http://www.w3.org/2000/svg" xmlns:xlink="http://www.w3.org/1999/xlink" x="0px" y="0px"
	 viewBox="0 0 382.47 214.47" style="enable-background:new 0 0 382.47 214.47;" xml:space="preserve">
<style type="text/css">
	.st0{fill:#212121;}
	.st1{fill:#FF0042;}
</style>
<g id="BACKGROUND">
</g>
<g id="OBJECTS">
	<g>
		<g>
			<g>
				<g>
					<g>
						<path class="st0" d="M314.21,83.23l-3.33,5.24c-0.46,0.73-0.26,1.7,0.46,2.18l0.18,0.12c0.73,0.49,1.73,0.29,2.21-0.45
							l3.38-5.15L314.21,83.23z"/>
					</g>
				</g>
				<g>
					<g>
						<path class="st0" d="M319.56,86.79l-3.45,5.1c-0.49,0.73-0.3,1.72,0.44,2.21l0.18,0.12c0.72,0.48,1.69,0.3,2.19-0.41
							l3.56-5.09L319.56,86.79z"/>
					</g>
				</g>
				<g>
					<g>
						<path class="st0" d="M308.53,79.44c-0.94,1.89-1.88,3.84-2.82,5.82c-0.34,0.71-0.1,1.57,0.56,2.01l0,0
							c0.76,0.51,1.78,0.27,2.25-0.51l3.11-5.24L308.53,79.44z"/>
					</g>
				</g>
				<g>
					<g>
						<path class="st0" d="M325.04,90.45l-3.64,4.89c-0.54,0.73-0.36,1.77,0.39,2.27l0,0c0.66,0.44,1.54,0.33,2.07-0.26
							c1.47-1.62,2.9-3.24,4.29-4.84L325.04,90.45z"/>
					</g>
				</g>
				<g>
					<g>
						<path class="st0" d="M370.46,7.79c-4.72-3.15-9.59,0.66-12.79,7.63c-3.91,8.51-15.66,29.87-17.97,33.51
							c-2.31,3.64-5.13,2.96-5.13,2.96l0,0.02c-4.81-0.68-10.13,1.58-14.64,7.34l22.47,14.98c0.33-0.59,0.63-1.17,0.89-1.75
							c0.08-0.16,0.15-0.32,0.22-0.48c0.07-0.15,0.13-0.3,0.19-0.45c2.23-5.32,1.96-10.09-0.17-13.68l0.02-0.01
							c0,0-1.71-2.34,0.76-5.87c2.47-3.53,17.67-22.58,24.02-29.47C373.54,16.9,375.18,10.94,370.46,7.79z"/>
					</g>
				</g>
			</g>
			<g>
				<path class="st1" d="M338.3,83.27c2.59,1.86,4.84,2.43,6.64,2.89c2.11,0.54,3.27,0.83,4.88,3.11c1.81,2.56,1.64,4.41,1.39,6.97
					c-0.02,0.23-0.04,0.47-0.06,0.7c2.1,0.39,4.17,0.92,6.2,1.58c0.02-0.51,0.07-1.06,0.13-1.69c0.27-2.84,0.64-6.74-2.52-11.21
					c-2.95-4.16-5.88-4.91-8.46-5.57c-1.57-0.4-2.92-0.74-4.56-1.93l-25.13-16.76c-1.45-0.96-3.4-0.57-4.36,0.87
					c-0.96,1.45-0.57,3.4,0.87,4.36L338.3,83.27z"/>
			</g>
			<g>
				<path class="st1" d="M334.1,91.18c-0.79,0.16-1.64,0.01-2.36-0.47l-22.6-15.07c-1.45-0.96-1.84-2.92-0.87-4.36
					c0.96-1.45,2.92-1.84,4.36-0.87l22.6,15.07c1.45,0.96,1.84,2.92,0.87,4.36C335.61,90.56,334.88,91.02,334.1,91.18z"/>
			</g>
		</g>
		<g>
			<path class="st1" d="M276.05,82.82c0.23,0,0.45,0.06,0.68,0.2l89.56,51.71c0.57,0.33,0.69,0.83,0.69,1.2
				c0,0.36-0.12,0.87-0.69,1.2l-89.56,51.71c-0.23,0.13-0.45,0.2-0.68,0.2c-0.56,0-1.39-0.44-1.39-1.39V84.21
				C274.66,83.26,275.49,82.82,276.05,82.82 M276.05,76.82c-3.86,0-7.39,3.08-7.39,7.39v103.42c0,4.31,3.54,7.39,7.39,7.39
				c1.23,0,2.49-0.31,3.68-1l89.56-51.71c4.92-2.84,4.92-9.95,0-12.79l-89.56-51.71C278.54,77.13,277.28,76.82,276.05,76.82
				L276.05,76.82z"/>
		</g>
		<g>
			<path class="st1" d="M296.53,118.29c0.23,0,0.45,0.06,0.68,0.2l28.12,16.24c0.57,0.33,0.69,0.83,0.69,1.2
				c0,0.36-0.12,0.87-0.69,1.2l-28.12,16.24c-0.23,0.13-0.45,0.2-0.68,0.2c-0.56,0-1.39-0.44-1.39-1.39v-32.47
				C295.14,118.73,295.97,118.29,296.53,118.29 M296.53,112.29c-3.86,0-7.39,3.08-7.39,7.39v32.47c0,4.31,3.54,7.39,7.39,7.39
				c1.23,0,2.49-0.31,3.68-1l28.12-16.24c4.92-2.84,4.92-9.95,0-12.79l-28.12-16.24C299.02,112.6,297.76,112.29,296.53,112.29
				L296.53,112.29z"/>
		</g>
		<g>
			<path class="st1" d="M286.68,101.22c0.23,0,0.45,0.06,0.68,0.2l57.69,33.31c0.57,0.33,0.69,0.83,0.69,1.2
				c0,0.36-0.12,0.87-0.69,1.2l-57.69,33.31c-0.23,0.13-0.45,0.2-0.68,0.2c-0.56,0-1.39-0.44-1.39-1.39v-66.61
				C285.28,101.66,286.11,101.22,286.68,101.22 M286.68,95.22c-3.86,0-7.39,3.08-7.39,7.39v66.61c0,4.31,3.54,7.39,7.39,7.39
				c1.23,0,2.49-0.31,3.68-1l57.69-33.31c4.92-2.84,4.92-9.95,0-12.79l-57.69-33.31C289.17,95.53,287.91,95.22,286.68,95.22
				L286.68,95.22z"/>
		</g>
		<g>
			<g>
				<path class="st0" d="M44.28,127.55l-7.96-16.06h-6.25v16.06H17.85V80.16h23.73c10.51,0,16.48,6.96,16.48,15.77
					c0,8.24-5.04,12.65-9.45,14.21l9.66,17.41H44.28z M39.73,90.46h-9.66v10.66h9.66c3.2,0,5.9-2.06,5.9-5.33
					C45.63,92.52,42.93,90.46,39.73,90.46z"/>
				<path class="st0" d="M64.81,127.55V80.16h34.74v10.3H77.03v7.89h22.02v10.37H77.03v8.53h22.52v10.3H64.81z"/>
				<path class="st0" d="M104.25,103.89c0-14.64,11.08-24.51,25.29-24.51c11.79,0,17.9,6.46,21.03,12.72l-10.51,4.97
					c-1.56-3.77-5.61-6.89-10.52-6.89c-7.39,0-12.86,5.97-12.86,13.71c0,7.74,5.47,13.71,12.86,13.71c4.9,0,8.95-3.13,10.52-6.89
					l10.51,4.97c-3.05,6.11-9.24,12.72-21.03,12.72C115.33,128.4,104.25,118.45,104.25,103.89z"/>
				<path class="st0" d="M155.83,127.55V80.16h12.22v47.39H155.83z"/>
				<path class="st0" d="M176.57,127.55V80.16h23.73c10.66,0,16.48,7.18,16.48,15.77c0,8.53-5.83,15.56-16.48,15.56h-11.51v16.06
					H176.57z M198.67,90.46h-9.88v10.66h9.88c3.27,0,5.68-2.06,5.68-5.26C204.35,92.59,201.94,90.46,198.67,90.46z"/>
				<path class="st0" d="M222.26,127.55V80.16H257v10.3h-22.52v7.89h22.02v10.37h-22.02v8.53H257v10.3H222.26z"/>
			</g>
			<g>
				<path class="st0" d="M15.93,165.07c0-18.61,14.1-31.17,32.17-31.17c15,0,22.77,8.22,26.75,16.17l-13.37,6.33
					c-1.99-4.79-7.14-8.77-13.37-8.77c-9.4,0-16.36,7.59-16.36,17.44s6.96,17.44,16.36,17.44c6.24,0,11.39-3.98,13.37-8.77
					l13.37,6.33c-3.89,7.77-11.75,16.17-26.75,16.17C30.03,196.24,15.93,183.59,15.93,165.07z"/>
				<path class="st0" d="M81.53,195.16v-60.27h15.54v46.72h24.22v13.55H81.53z"/>
				<path class="st0" d="M129.33,195.16v-60.27h15.54v60.27H129.33z"/>
				<path class="st0" d="M155.72,195.16v-60.27h30.18c13.55,0,20.96,9.13,20.96,20.06c0,10.84-7.41,19.79-20.96,19.79h-14.64v20.42
					H155.72z M183.82,147.99h-12.56v13.55h12.56c4.16,0,7.23-2.62,7.23-6.69C191.05,150.7,187.98,147.99,183.82,147.99z"/>
				<path class="st0" d="M217.7,175.01c4.34,4.34,11.02,7.95,19.25,7.95c5.33,0,8.58-2.26,8.58-5.15c0-3.43-3.88-4.79-10.3-6.14
					c-9.94-1.99-23.86-4.52-23.86-18.8c0-10.12,8.58-18.89,24.04-18.89c9.67,0,18.07,2.89,24.49,8.4l-8.49,11.11
					c-5.06-4.16-11.66-6.23-16.99-6.23c-5.15,0-7.14,2.08-7.14,4.7c0,3.16,3.71,4.25,10.39,5.51c9.94,2.08,23.67,4.97,23.67,18.61
					c0,12.11-8.95,20.15-25.12,20.15c-12.2,0-20.69-3.79-26.75-9.58L217.7,175.01z"/>
			</g>
		</g>
		<g>
			<polygon class="st1" points="351.22,96.24 344.15,115.01 350.75,119.74 357.36,98.53 			"/>
		</g>
	</g>
</g>
<g id="DESIGNED_BY_FREEPIK">
</g>
</svg>
